<?xml version="1.0" encoding="UTF-8"?>
<svg id="Layer_1" xmlns="http://www.w3.org/2000/svg" version="1.1" viewBox="0 0 1416.7 1390">
  <!-- Generator: Adobe Illustrator 29.6.1, SVG Export Plug-In . SVG Version: 2.1.1 Build 9)  -->
  <defs>
    <style>
      .st0 {
        fill: #e8e3d5;
      }
    </style>
  </defs>
  <path class="st0" d="M205.1,42.6c121-13.5,16.2,167,95.8,196.3,17.7,5.8,91.6,4.8,113.1,3.1,67.8-7.9,35.9-51.7,65.1-85.4,25.9-26.4,73.1-16.6,86,18.2,5.3,14.2,2,29.4,9.5,42.5,7.9,13.9,24.5,24.6,40.4,24.5,70.2-.4,136.6,2.6,202.8-.1,64.7-2.7,32.7-55.2,62.2-85.8,26.2-25.5,72.4-15.4,85.2,19,5.3,14.2,2,29.4,9.5,42.5,24.1,53.4,278.6,16.6,348.6,28.9,24.9,4.1,43.3,19.8,45.8,44.7,2.1,21.2,2.5,103.2-3.6,120.4-10.1,28.5-43.1,41.6-70.4,29.6-46.1-20.2-15.3-79.5-64.4-93.7-3.3-2.1-223.9-1.9-227.3,0-29.2,8.6-44.7,44.4-27.9,71.3,41.7,60.8,194-26.3,194.6,81.8,7.4,74.3,133.7,21.5,175.8,49.8,35.7,23.8,27.8,79.6-12.7,92.7-17.8,5.7-95.5,4.9-117.1,3.1-17.4-1.5-33.9-9.6-43.3-24.7-9.8-15.7-5.6-27.8-10.6-43.4-5-15.3-21.6-30.2-38-32-65.1-7.3-143.5,4.8-210.6.5-22.9-.5-42.5,19.5-44.5,42.4-2.3,25.7-2.9,88.9.6,113.6,5.3,36.9,53.8,51.5,80.6,25.6,24.7-23.9,3.6-67.7,47-83,53.9-19.1,95.2,45.5,57,85-19.1,19.7-41.5,11-61.7,22.3-13.3,7.8-22.9,21.5-22.6,36.9,3.2,67.4-7.4,143.9-.8,209.7,4,39.8,54.3,56.7,82.1,28.1,19.8-20.4,7.3-47.8,26.9-69.1,26.1-28.5,81.5-19.6,87.6,18.5,21.5,133.5,188.3.7,203.5,116.5,5.4,63.2-4.1,134-.1,198.2.3,38.8-38.9,66.8-75.3,49.2-64.6-30.6,6.5-159.6-55.9-190.1-18.6-9.1-34.5-.1-54.8-17.2-25.5-21.6-11.8-44.8-27.1-66.9-24.2-35.9-80.1-21.6-86.3,19.2-6.1,67.9,6.4,144.9-.8,211.4-5.2,68-102.3,48.8-150.9,49.3-18-.6-35.5-9.2-45.2-24.7-11.4-18.2-4.4-37.4-16.7-55.3-22.1-31.9-72.5-25.1-84.4,11.3-3.6,10.9-2,21.7-5.5,32.5-6.7,20.8-26.9,34.8-48.3,35.8-3.2-.2-500.4.6-503.3.2-65.8-6.7-65.3-98-2.5-103.7,7.7-1.6,501.8,1.4,509.1-1.1,58.6-11,31-50.7,56.7-82.3,40.8-42.1,89.7-11,93.4,49.7,3,49,87.5,45.3,93.8-15.4.2-1.2,18.4-145.5-41.2-146.2-45.1-1.3-284.4,0-319.3-2.7-18.8-5-38-22.1-38.5-42.7,0-48.8-50.4-75.9-86-39.3-20.3,24.7-1.6,66.1-46.9,80.8-52.7,17.1-91.7-49.5-53.1-87.1,18.8-18.3,38.1-10.3,58.4-19.6,55.4-25,11.9-193.9,27.1-252.7,8.3-56.6,97.9-57.7,103.6,9.3,5.6,65.5-6.6,141.1,0,206,2.6,25.5,24.3,43.4,48.9,43.1,64.3-.8,226.9,21.2,243.2-30.9,5.9-18.8,5.7-93.6,3.9-116.2-1.3-17-8.6-33.2-23.4-42.6-14.6-9.3-30.7-4.3-46.7-11.3-45.5-20-26.6-85.8-29.4-136.2-1.5-27.7-20.7-51.4-47.5-58.5-25.2-6.7-52.9-9.9-80.9-9.3-44,1-87.1-.8-125.1-.1-74.1,1.3-66.3-90.5-15.1-91.7,56.2-1.3,114.9-3.5,163.2-2.7,86.8,1.5,101.6-6.7,105.8,40.5,1.5,16.6.8,23.6,11.1,38,21.8,30.5,71.3,25.9,84.1-9.9,6.6-18.5,5.7-93.7,3.9-116.2-1.9-24-16.7-45.9-41.6-48.9-62.2-13-218.3,27.4-250.8-24.7-14.3-22.8-1.1-47.6-28.6-67.4-23-16.6-63.8-9.5-70.2,17.3-28.2,116.7-126.6,49.1-188.4,85.7-23.6,18.7-21.7,57.3,2.6,75,19.1,14.1,40.4,5.3,60,20,33.3,25,24.2,78.4-15,91-10.9,3.5-21.7,1.9-32.5,5.5-37.1,12.2-43,63.6-10.1,85.2,18.8,12.4,39,3.6,58.7,19.3,24.5,19.5,26.3,58,2.9,79-25.1,22.7-61.7,3.3-78.7,41.3-11.2,24.8-1.1,91.9-4.5,123.5-6.5,59.7-87.2,64.9-101.8,12.3-4.4-18.7-4.4-96.7-1.7-121.8,11.3-61.2,54.4-32.5,84.9-59.3,21.9-21.3,17.6-57.8-7.3-74.9-15.2-10.4-31.4-4.9-47.9-12.1-78.8-42,29.8-193.9-97.1-198.9-69.4-2.7-73-100.2,14-100.2,34.4,0,108.1,8.8,133.7-10.3,26-19.4,24.4-58.9-1.7-77.6-14.8-10.6-27-6.2-43-11-16.4-4.9-32.6-21.4-35.5-38.5-3.1-18.5-2.8-106.4.8-124.2,3.8-18.3,20.5-34.2,38.9-37.6h0ZM964.3,293.4c-1.1-63-94.7-62.9-95.8,0,1.1,63,94.7,63,95.8,0Z"/>
  <path class="st0" d="M1306.4,742.4c32.4-4.7,59.2,15.9,62.5,48.5,2.1,21,2.6,101.6-3,119-16.9,52.2-95,43.7-101-9-2.4-20.9-2.7-104,1.7-122.3,4.4-18.1,21.4-33.5,39.8-36.2h0Z"/>
  <path class="st0" d="M268.4,1093.4c-1.2,68.3-102.8,68.3-104,0,1.2-68.3,102.8-68.3,104,0Z"/>
</svg>